<?xml version="1.0" encoding="UTF-8" standalone="no"?>
<!-- Created with Inkscape (http://www.inkscape.org/) -->

<svg
   version="1.1"
   id="svg2"
   width="578.89331"
   height="241.89333"
   viewBox="0 0 578.89331 241.89333"
   sodipodi:docname="icon.eps"
   xmlns:inkscape="http://www.inkscape.org/namespaces/inkscape"
   xmlns:sodipodi="http://sodipodi.sourceforge.net/DTD/sodipodi-0.dtd"
   xmlns="http://www.w3.org/2000/svg"
   xmlns:svg="http://www.w3.org/2000/svg">
  <defs
     id="defs6" />
  <sodipodi:namedview
     id="namedview4"
     pagecolor="#ffffff"
     bordercolor="#000000"
     borderopacity="0.25"
     inkscape:showpageshadow="2"
     inkscape:pageopacity="0.0"
     inkscape:pagecheckerboard="0"
     inkscape:deskcolor="#d1d1d1" />
  <g
     id="g8"
     inkscape:groupmode="layer"
     inkscape:label="ink_ext_XXXXXX"
     transform="matrix(1.3333333,0,0,-1.3333333,0,241.89333)">
    <g
       id="g10"
       transform="scale(0.1)">
      <path
         d="m 1307.44,1238.24 c 0,-352.17 -259.87,-575.92 -662.026,-575.92 H 535.504 L 377.945,952.93 h 241.821 c 142.246,0 380.854,34.449 380.854,290.91 0,188.18 -131.972,279.7 -392.241,279.7 H 313.621 L 313.621,0 H 0 v 1814.17 h 594.102 c 169.546,0 347.73,-9.54 499.378,-123.62 132.04,-102.26 213.96,-273.16 213.96,-452.31 m 2912.88,357.93 c 55.03,0 98,41.92 98,99.71 0,56.66 -42.97,99.03 -98,99.03 -55.75,0 -98.81,-42.37 -98.81,-99.03 0,-57.79 43.06,-99.71 98.81,-99.71 m 0,218 c 65.33,0 121.37,-50.15 121.37,-118.29 0,-68.79 -56.04,-118.91 -121.37,-118.91 -66.09,0 -122.1,50.12 -122.1,118.91 0,68.14 56.01,118.29 122.1,118.29 m -0.32,-110.3 c 25.85,0 34.17,7.34 34.17,22.4 0,13.1 -6.43,20.45 -30.68,20.45 h -28.83 v -42.85 z m 55.64,21.09 c 0,-24.58 -15.49,-35.19 -36.33,-37.69 l 39.54,-60.18 h -23.36 l -36.83,59.48 h -24 v -59.48 h -21.3 v 136.93 h 53.09 c 32.92,0 49.19,-12.2 49.19,-39.06 m -270.33,89.21 H 3667.06 L 3210.44,952.621 2753.75,1814.17 H 2415.59 L 2887.1,925.465 2561.69,292.672 1798.53,1814.17 H 1453.78 L 1902.33,952.621 H 1607.58 L 1095.5,0 h 367.08 L 1930.98,897.891 2379.44,0 h 362.9 L 3210.44,897.383 3678.45,0 h 345.08 l -489.72,925.492 471.5,888.678"
         style="fill:#231f20;fill-opacity:1;fill-rule:nonzero;stroke:none"
         id="path12" />
    </g>
  </g>
</svg>
